<?xml version="1.0" encoding="UTF-8" standalone="no"?>
<svg
   version="1.1"
   x="0px"
   y="0px"
   viewBox="0 0 1145.1969 1080.9448"
   style="overflow:scroll"
   xml:space="preserve"
   id="svg291"
   width="1145.1969"
   height="1080.9448"
   xmlns:xlink="http://www.w3.org/1999/xlink"
   xmlns="http://www.w3.org/2000/svg"
   xmlns:svg="http://www.w3.org/2000/svg">
<style
   type="text/css"
   id="style152">
	.st0{clip-path:url(#SVGID_2_);fill:url(#SVGID_3_);}
	.st1{clip-path:url(#SVGID_5_);fill:url(#SVGID_6_);}
	.st2{fill-rule:evenodd;clip-rule:evenodd;}
	.st3{clip-path:url(#SVGID_8_);fill:url(#SVGID_9_);}
	.st4{clip-path:url(#SVGID_11_);fill:url(#SVGID_12_);}
	.st5{clip-path:url(#SVGID_14_);fill:url(#SVGID_15_);}
	.st6{fill:#FFFFFF;}
	.st7{fill-rule:evenodd;clip-rule:evenodd;fill:#FFFFFF;}
	.st8{clip-path:url(#SVGID_17_);fill:url(#SVGID_18_);}
	.st9{clip-path:url(#SVGID_20_);fill:url(#SVGID_21_);}
	.st10{clip-path:url(#SVGID_23_);fill:url(#SVGID_24_);}
	.st11{clip-path:url(#SVGID_26_);fill:url(#SVGID_27_);}
	.st12{clip-path:url(#SVGID_29_);fill:url(#SVGID_30_);}
</style>
<defs
   id="defs154">
</defs>






<g
   id="g450"
   transform="matrix(4.8835687,0,0,4.8713154,0,-27.766498)"><g
     id="g183">
	<defs
   id="defs157">
		<path
   id="SVGID_1_"
   d="m 48.4,90 c 0,16 13,28.9 28.9,28.9 16,0 28.9,-12.9 28.9,-28.9 0,-16 -13,-28.9 -28.9,-28.9 -16,0 -28.9,13 -28.9,28.9" />
	</defs>
	<clipPath
   id="SVGID_2_">
		<use
   xlink:href="#SVGID_1_"
   style="overflow:visible"
   id="use159"
   x="0"
   y="0"
   width="100%"
   height="100%" />
	</clipPath>

		<radialGradient
   id="SVGID_3_"
   cx="-122.5592"
   cy="456.30991"
   r="0.99980003"
   gradientTransform="matrix(40.3131,0,0,-40.3131,5027.2983,18476.297)"
   gradientUnits="userSpaceOnUse">
		<stop
   offset="0"
   style="stop-color:#FFFFFF"
   id="stop162" />
		<stop
   offset="8.107817e-02"
   style="stop-color:#D4DEF1"
   id="stop164" />
		<stop
   offset="0.1907"
   style="stop-color:#A9BFE3"
   id="stop166" />
		<stop
   offset="0.3055"
   style="stop-color:#86A8D8"
   id="stop168" />
		<stop
   offset="0.4241"
   style="stop-color:#6A97CF"
   id="stop170" />
		<stop
   offset="0.5478"
   style="stop-color:#538CC9"
   id="stop172" />
		<stop
   offset="0.6788"
   style="stop-color:#4084C5"
   id="stop174" />
		<stop
   offset="0.8219"
   style="stop-color:#3280C3"
   id="stop176" />
		<stop
   offset="1"
   style="stop-color:#2D7EC2"
   id="stop178" />
	</radialGradient>
	<rect
   x="48.400002"
   y="61.099998"
   class="st0"
   width="57.900002"
   height="57.900002"
   clip-path="url(#SVGID_2_)"
   id="rect181"
   style="fill:url(#SVGID_3_)" />
</g><g
     id="g206">
	<defs
   id="defs186">
		<path
   id="SVGID_4_"
   d="m 75.3,5.7 12.3,40.7 c 0,0 6,1.3 9.3,3.1 10.3,5.5 12.8,10.5 17.3,17.2 4.4,6.5 10.8,26.8 -0.3,45.8 -16.1,27.5 -46.5,19.4 -46.5,19.4 l 26,39 c 0,0 40.1,3 76.4,-26.9 26.5,-21.8 31.2,-50.4 26.8,-69.8 -8.1,-36 -37.4,-50 -51.3,-56.5 C 122,6.7 91,5.7 79.7,5.7 c -2.8,0 -4.4,0 -4.4,0" />
	</defs>
	<clipPath
   id="SVGID_5_">
		<use
   xlink:href="#SVGID_4_"
   style="overflow:visible"
   id="use188"
   x="0"
   y="0"
   width="100%"
   height="100%" />
	</clipPath>

		<linearGradient
   id="SVGID_6_"
   gradientUnits="userSpaceOnUse"
   x1="-122.5441"
   y1="456.29419"
   x2="-121.5441"
   y2="456.29419"
   gradientTransform="matrix(130.7148,0,0,-130.7148,16085.696,59734.152)">
		<stop
   offset="0"
   style="stop-color:#808285"
   id="stop191" />
		<stop
   offset="4.687500e-02"
   style="stop-color:#808285"
   id="stop193" />
		<stop
   offset="0.2205"
   style="stop-color:#A5A7AA"
   id="stop195" />
		<stop
   offset="0.4105"
   style="stop-color:#CCCED0"
   id="stop197" />
		<stop
   offset="0.5052"
   style="stop-color:#DCDDDE"
   id="stop199" />
		<stop
   offset="1"
   style="stop-color:#DCDDDE"
   id="stop201" />
	</linearGradient>
	<rect
   x="67.400002"
   y="5.6999998"
   class="st1"
   width="133.7"
   height="168.2"
   clip-path="url(#SVGID_5_)"
   id="rect204"
   style="fill:url(#SVGID_6_)" />
</g><g
     id="g210">
	<rect
   y="181.5"
   class="st2"
   width="234.5"
   height="46.099998"
   id="rect208"
   x="0" />
</g><g
     id="g231">
	<defs
   id="defs213">
		<path
   id="SVGID_7_"
   d="m 82.6,9.4 10.5,34.1 c 0,0 10,2.3 19,12.2 5.3,5.8 10.6,14.2 12.4,29.8 2.2,18.8 -9.4,34.6 -16.3,40.2 -4.3,3.5 -20.3,12.3 -34.3,9.1 L 94.5,167 c 0,0 38.6,2.6 72.8,-25.8 25,-20.8 29.5,-47.9 25.3,-66.4 C 184.9,40.5 157.3,27.3 144.2,21.1 120.8,10.1 92.7,9.3 84.8,9.3 c -1.4,0 -2.2,0.1 -2.2,0.1" />
	</defs>
	<clipPath
   id="SVGID_8_">
		<use
   xlink:href="#SVGID_7_"
   style="overflow:visible"
   id="use215"
   x="0"
   y="0"
   width="100%"
   height="100%" />
	</clipPath>

		<linearGradient
   id="SVGID_9_"
   gradientUnits="userSpaceOnUse"
   x1="-122.5422"
   y1="456.289"
   x2="-121.542"
   y2="456.289"
   gradientTransform="matrix(0,-157.6978,-157.6978,0,72091.117,-19157.654)">
		<stop
   offset="0"
   style="stop-color:#DCDDDE"
   id="stop218" />
		<stop
   offset="0.3268"
   style="stop-color:#B6B8BA"
   id="stop220" />
		<stop
   offset="0.4974"
   style="stop-color:#A7A9AC"
   id="stop222" />
		<stop
   offset="0.8276"
   style="stop-color:#CCCED0"
   id="stop224" />
		<stop
   offset="1"
   style="stop-color:#DCDDDE"
   id="stop226" />
	</linearGradient>
	<rect
   x="74"
   y="9.3000002"
   class="st3"
   width="122.7"
   height="160.3"
   clip-path="url(#SVGID_8_)"
   id="rect229"
   style="fill:url(#SVGID_9_)" />
</g><g
     id="g252">
	<defs
   id="defs234">
		<polygon
   id="SVGID_10_"
   points="87.6,46.4 93.1,43.5 82.6,9.4 75.3,5.7 " />
	</defs>
	<clipPath
   id="SVGID_11_">
		<use
   xlink:href="#SVGID_10_"
   style="overflow:visible"
   id="use236"
   x="0"
   y="0"
   width="100%"
   height="100%" />
	</clipPath>

		<linearGradient
   id="SVGID_12_"
   gradientUnits="userSpaceOnUse"
   x1="-122.5692"
   y1="456.35269"
   x2="-121.569"
   y2="456.35269"
   gradientTransform="matrix(27.8503,10.1367,10.1367,-27.8503,-1142.5048,13972.818)">
		<stop
   offset="0"
   style="stop-color:#DCDDDE"
   id="stop239" />
		<stop
   offset="1.042180e-02"
   style="stop-color:#DCDDDE"
   id="stop241" />
		<stop
   offset="0.3854"
   style="stop-color:#B3B5B8"
   id="stop243" />
		<stop
   offset="0.7954"
   style="stop-color:#8E9093"
   id="stop245" />
		<stop
   offset="1"
   style="stop-color:#808285"
   id="stop247" />
	</linearGradient>
	<polygon
   class="st4"
   points="77.4,0 106.2,10.5 91,52.1 62.2,41.6 "
   clip-path="url(#SVGID_11_)"
   id="polygon250"
   style="fill:url(#SVGID_12_)" />
</g><g
     id="g275">
	<defs
   id="defs255">
		<polygon
   id="SVGID_13_"
   points="93.4,170.8 94.5,167 74,134.8 67.4,131.8 " />
	</defs>
	<clipPath
   id="SVGID_14_">
		<use
   xlink:href="#SVGID_13_"
   style="overflow:visible"
   id="use257"
   x="0"
   y="0"
   width="100%"
   height="100%" />
	</clipPath>

		<linearGradient
   id="SVGID_15_"
   gradientUnits="userSpaceOnUse"
   x1="-122.5743"
   y1="456.3093"
   x2="-121.5745"
   y2="456.3093"
   gradientTransform="matrix(35.5193,12.928,12.928,-35.5193,-1482.7378,17937.096)">
		<stop
   offset="0"
   style="stop-color:#808285"
   id="stop260" />
		<stop
   offset="4.687500e-02"
   style="stop-color:#808285"
   id="stop262" />
		<stop
   offset="0.3429"
   style="stop-color:#A5A7AA"
   id="stop264" />
		<stop
   offset="0.6666"
   style="stop-color:#CCCED0"
   id="stop266" />
		<stop
   offset="0.8281"
   style="stop-color:#DCDDDE"
   id="stop268" />
		<stop
   offset="1"
   style="stop-color:#DCDDDE"
   id="stop270" />
	</linearGradient>
	<polygon
   class="st5"
   points="70.5,123.1 107,136.4 91.3,179.5 54.8,166.3 "
   clip-path="url(#SVGID_14_)"
   id="polygon273"
   style="fill:url(#SVGID_15_)" />
</g><g
     id="g289">
	<polygon
   class="st6"
   points="20.9,221.7 12.2,221.7 12.2,188 20.9,188 20.9,201.9 21,201.9 31.6,188 42.5,188 29.1,203.9 43.7,221.7 32.3,221.7 21,207.1 20.9,207.1 "
   id="polygon277" />
	<path
   class="st7"
   d="m 67.2,209.1 -3.6,-10.7 h -0.1 l -3.6,10.7 z m 2.3,6.7 h -12 l -2.3,5.8 h -9.3 l 13,-33.6 h 9.6 l 12.7,33.6 h -9.3 z"
   id="path279" />
	<polygon
   class="st6"
   points="108.7,221.7 92.7,201 92.6,201 92.6,221.7 83.8,221.7 83.8,188 92.6,188 108.6,208.6 108.7,208.6 108.7,188 117.5,188 117.5,221.7 "
   id="polygon281" />
	<path
   class="st7"
   d="m 141.5,209.1 -3.6,-10.7 h -0.1 l -3.6,10.7 z m 2.4,6.7 h -12.1 l -2.3,5.8 h -9.3 l 13,-33.6 h 9.6 l 12.7,33.6 h -9.4 z"
   id="path283" />
	<polygon
   class="st6"
   points="177.4,214.3 177.4,221.7 158.1,221.7 158.1,188 166.9,188 166.9,214.3 "
   id="polygon285" />
	<path
   class="st7"
   d="m 204.4,195.4 v 18.8 h 2 c 2.8,0 5.1,-0.7 6.8,-2.2 1.9,-1.7 2.9,-4.1 2.9,-7.2 0,-2.9 -0.9,-5.2 -2.6,-6.9 -1.8,-1.7 -4.1,-2.5 -7,-2.5 z m -8.8,26.3 V 188 H 208 c 4.7,0 8.7,1.6 12.1,4.9 3.4,3.2 5.1,7.2 5.1,11.9 0,4.7 -1.7,8.7 -5.1,12 -3.3,3.2 -7.4,4.9 -12.1,4.9 z"
   id="path287" />
</g></g>
</svg>
